{"title":"Marco Bellocchio - Il regista di matrimoni (2006)","uid":5646936,"size":1495307885,"categoryP":"video","categoryS":"movies","magnet":"?xt=urn:btih:1f7603d740eaad911709ba2b5263ae94929c4c8d&amp;dn=Marco+Bellocchio+-+Il+regista+di+matrimoni+%282006%29&amp;tr=udp%3A%2F%2Ftracker.openbittorrent.com%3A80&amp;tr=udp%3A%2F%2Fopen.demonii.com%3A1337&amp;tr=udp%3A%2F%2Ftracker.coppersurfer.tk%3A6969&amp;tr=udp%3A%2F%2Fexodus.desync.com%3A6969","seeders":2,"leechers":0,"uploader":"mfccorrea","files":3,"time":1277320693,"description":"After ending up in a scenic Sicilian town while trying to avoid his daughter's impending wedding to a devout Catholic, a famous film director becomes inexorably involved in the nuptials of another beautiful bride-to-be in director Marco Bellocchio's semi-surreal drama. Though he tries to keep a low profile upon arriving in Sicily, director Franco Elica (Sergio Castellitto) soon catches the attention of the bankrupt prince of Gravina (Sami Frey) -- who cordially invites the filmmaker to attend his daughter Bona's (Donatella Finocchiaro) upcoming wedding. As it turns out, Bona was to appear in the director's latest film, a cinematic adaptation of the Italian literary classic The Betrothed. In the time leading up to the wedding, the smitten filmmaker develops a deep longing for the lovely Bona and starts doing everything in his power to sabotage her marriage to a wealthy lawyer. \n\n   General\n      Complete name : Il regista di matrimoni.avi\n      Format : AVI\n      Format/Info : Audio Video Interleave\n      File size : 1.39 GiB\n      Duration : 1h 43mn\n      Overall bit rate : 1 925 Kbps\n      Writing application : FairUse Wizard - http://fairusewizard.com\n      Writing library : The best and REALLY easy backup tool\n   Video #0\n      ID : 0\n      Format : MPEG-4 Visual\n      Format profile : AdvancedSimple@L5\n      Format settings, BVOP : Yes\n      Format settings, QPel : No\n      Format settings, GMC : No warppoints\n      Format settings, Matrix : Default (MPEG)\n      Muxing mode : Packed bitstream\n      Codec ID : XVID\n      Codec ID/Hint : XviD\n      Duration : 1h 43mn\n      Bit rate : 1 532 Kbps\n      Width : 704 pixels\n      Height : 384 pixels\n      Display aspect ratio : 16:9\n      Frame rate : 23.976 fps\n      Resolution : 24 bits\n      Colorimetry : 4:2:0\n      Scan type : Progressive\n      Bits/(Pixel*Frame) : 0.236\n      Stream size : 1.10 GiB (80%)\n      Writing library : XviD 1.2.0.dev47 (UTC 2006-11-01)\n   Audio #1\n      ID : 1\n      Format : AC-3\n      Format/Info : Audio Coding 3\n      Codec ID : 2000\n      Duration : 1h 43mn\n      Bit rate mode : Constant\n      Bit rate : 384 Kbps\n      Channel(s) : 6 channels\n      Channel positions : Front: L C R, Surround: L R, LFE\n      Sampling rate : 48.0 KHz\n      Stream size : 283 MiB (20%)\n      Alignment : Split accross interleaves\n      Interleave, duration : 42 ms (1.00 video frame)\n      Interleave, preload duration : 500 ms\n &lt;a href=&quot;\nhttp://www.imdb.com/title/tt0433624/&quot; rel=&quot;nofollow&quot; target=&quot;_NEW&quot;&gt;\nhttp://www.imdb.com/title/tt0433624/&lt;/a&gt;\n\nItalian audio; English and Portuguese subpack (idx/sub)\n\nMy rip\n\nMarco Bellocchio - Il regista di matrimoni (2006)","torrent":{"xt":"urn:btih:1f7603d740eaad911709ba2b5263ae94929c4c8d","amp;dn":"Marco+Bellocchio+-+Il+regista+di+matrimoni+%282006%29","amp;tr":["udp%3A%2F%2Ftracker.openbittorrent.com%3A80","udp%3A%2F%2Fopen.demonii.com%3A1337","udp%3A%2F%2Ftracker.coppersurfer.tk%3A6969","udp%3A%2F%2Fexodus.desync.com%3A6969"],"infoHash":"1f7603d740eaad911709ba2b5263ae94929c4c8d","infoHashBuffer":{"type":"Buffer","data":[31,118,3,215,64,234,173,145,23,9,186,43,82,99,174,148,146,156,76,141]},"announce":[],"urlList":[]}}